<?xml version="1.0" encoding="UTF-8"?>
<svg width="32" height="32" viewBox="0 0 32 32" fill="none" xmlns="http://www.w3.org/2000/svg">
  <circle cx="16" cy="16" r="16" fill="white"/>
  <path d="M22 10.4V20.4C22 21.8 20.8 23 19.4 23C18 23 16.8 21.8 16.8 20.4C16.8 19 18 17.8 19.4 17.8C19.8 17.8 20.2 17.9 20.5 18.1V12.6L13.5 14.5V21.4C13.5 22.8 12.3 24 10.9 24C9.5 24 8.3 22.8 8.3 21.4C8.3 20 9.5 18.8 10.9 18.8C11.3 18.8 11.7 18.9 12 19.1V11.7C12 11 12.5 10.4 13.2 10.2L20.2 8.3C20.9 8.1 21.5 8.3 21.8 8.7C21.9 9 22 9.2 22 9.5V10.4Z" fill="black"/>
</svg> 